<svg xmlns="http://www.w3.org/2000/svg" width="76" height="76" viewBox="0 0 76 76"><defs><mask id="d46fb" width="2" height="2" x="-1" y="-1"><path fill="#fff" d="M8 3h60v60H8z"/><path d="M13 3h50a5 5 0 0 1 5 5v50a5 5 0 0 1-5 5H13a5 5 0 0 1-5-5V8a5 5 0 0 1 5-5z"/></mask><filter id="d46fa" width="100" height="105" x="-12" y="-17" filterUnits="userSpaceOnUse"><feOffset dy="5" in="SourceGraphic" result="FeOffset1023Out"/><feGaussianBlur in="FeOffset1023Out" result="FeGaussianBlur1024Out" stdDeviation="4 4"/></filter></defs><g><g><g filter="url(#d46fa)"><path fill="none" d="M13 3h50a5 5 0 0 1 5 5v50a5 5 0 0 1-5 5H13a5 5 0 0 1-5-5V8a5 5 0 0 1 5-5z" mask="url(&quot;#d46fb&quot;)"/><path fill-opacity=".2" d="M13 3h50a5 5 0 0 1 5 5v50a5 5 0 0 1-5 5H13a5 5 0 0 1-5-5V8a5 5 0 0 1 5-5z"/></g><path fill="#061e37" d="M13 3h50a5 5 0 0 1 5 5v50a5 5 0 0 1-5 5H13a5 5 0 0 1-5-5V8a5 5 0 0 1 5-5z"/></g></g></svg>